<svg version="1.1" id="Layer_1" xmlns="http://www.w3.org/2000/svg" xmlns:xlink="http://www.w3.org/1999/xlink" x="0px" y="0px"
	 width="100%" viewBox="0 0 907 1284" enable-background="new 0 0 907 1284" xml:space="preserve">
<path fill="#FFFFFF" opacity="1.000000" stroke="none" 
	d="
M908.000000,73.000000 
	C908.000000,476.907471 908.000000,880.814941 908.000000,1285.000000 
	C712.637390,1285.000000 517.274658,1285.000000 321.764099,1284.584229 
	C321.291992,1282.112549 320.683838,1280.056763 320.683594,1278.000977 
	C320.641663,945.160645 320.642670,612.320374 320.660858,279.480042 
	C320.660980,277.329163 320.924103,275.178253 321.438049,273.031372 
	C322.908447,272.673309 324.092255,272.470551 325.089081,271.925659 
	C347.553436,259.645996 370.236633,247.740814 392.366486,234.883606 
	C409.016968,225.209854 425.041687,214.442337 441.183472,203.914108 
	C460.391846,191.385696 479.599335,178.842651 498.500458,165.859390 
	C532.769470,142.319931 567.432312,119.396133 604.030884,99.627670 
	C640.393433,79.986710 678.179321,63.651386 718.889099,55.293167 
	C735.705750,51.840515 752.733276,48.081455 769.781250,47.408245 
	C794.095276,46.448097 818.603760,45.116863 842.857483,49.921173 
	C862.969910,53.905159 882.553650,59.137836 900.420410,69.597160 
	C902.796631,70.988205 905.466248,71.878067 908.000000,73.000000 
z"/>
<path fill="#666666" opacity="1.000000" stroke="none" 
	d="
M321.064392,273.027374 
	C320.924103,275.178253 320.660980,277.329163 320.660858,279.480042 
	C320.642670,612.320374 320.641663,945.160645 320.683594,1278.000977 
	C320.683838,1280.056763 321.291992,1282.112549 321.308136,1284.584229 
	C214.357574,1285.000000 107.715164,1285.000000 1.036373,1285.000000 
	C1.036373,857.121521 1.036373,429.243103 1.036373,1.000000 
	C107.020615,1.000000 213.041656,1.000000 319.530762,1.468609 
	C320.255890,9.304241 320.512909,16.671265 320.723206,24.464659 
	C320.761627,26.605484 320.846771,28.319937 320.853821,30.495815 
	C320.761414,110.494888 320.745636,190.032547 320.746490,269.570190 
	C320.746521,270.722595 320.953827,271.874969 321.064392,273.027374 
z"/>
<path fill="#D5D5D5" opacity="1.000000" stroke="none" 
	d="
M321.438049,273.031372 
	C320.953827,271.874969 320.746521,270.722595 320.746490,269.570190 
	C320.745636,190.032547 320.761414,110.494888 321.324219,30.476871 
	C517.248474,29.997667 712.624207,29.998835 908.000000,30.000000 
	C908.000000,44.020893 908.000000,58.041790 908.000000,72.531342 
	C905.466248,71.878067 902.796631,70.988205 900.420410,69.597160 
	C882.553650,59.137836 862.969910,53.905159 842.857483,49.921173 
	C818.603760,45.116863 794.095276,46.448097 769.781250,47.408245 
	C752.733276,48.081455 735.705750,51.840515 718.889099,55.293167 
	C678.179321,63.651386 640.393433,79.986710 604.030884,99.627670 
	C567.432312,119.396133 532.769470,142.319931 498.500458,165.859390 
	C479.599335,178.842651 460.391846,191.385696 441.183472,203.914108 
	C425.041687,214.442337 409.016968,225.209854 392.366486,234.883606 
	C370.236633,247.740814 347.553436,259.645996 325.089081,271.925659 
	C324.092255,272.470551 322.908447,272.673309 321.438049,273.031372 
z"/>
<path fill="#D5D5D5" opacity="1.000000" stroke="none" 
	d="
M320.769928,24.038286 
	C320.512909,16.671265 320.255890,9.304241 319.999451,1.468609 
	C516.000000,1.000000 712.000000,1.000000 908.000000,1.000000 
	C908.000000,8.406282 908.000000,15.734405 907.536133,23.530857 
	C816.102844,23.999033 725.133484,23.993704 634.164062,24.000080 
	C529.699341,24.007402 425.234650,24.025097 320.769928,24.038286 
z"/>
<path fill="#FEFEFE" opacity="1.000000" stroke="none" 
	d="
M320.723206,24.464659 
	C425.234650,24.025097 529.699341,24.007402 634.164062,24.000080 
	C725.133484,23.993704 816.102844,23.999033 907.536133,23.999594 
	C908.000000,25.714056 908.000000,27.428114 908.000000,29.571085 
	C712.624207,29.998835 517.248474,29.997667 321.402313,30.015446 
	C320.846771,28.319937 320.761627,26.605484 320.723206,24.464659 
z"/>
</svg>