<svg version="1.1" id="Layer_1" xmlns="http://www.w3.org/2000/svg" xmlns:xlink="http://www.w3.org/1999/xlink" x="0px" y="0px"
	 width="100%" viewBox="0 0 591 1284" enable-background="new 0 0 591 1284" xml:space="preserve">
<path fill="#FFFFFF" opacity="1.000000" stroke="none" 
	d="
M592.000000,74.000000 
	C592.000000,477.574249 592.000000,881.148499 592.000000,1285.000000 
	C395.970734,1285.000000 199.941315,1285.000000 3.498148,1284.658447 
	C2.389595,1283.877930 1.694795,1283.438965 0.999998,1283.000000 
	C1.000000,946.637268 1.000000,610.274597 1.296935,273.777557 
	C3.896391,272.696655 6.258375,271.872314 8.492556,270.785278 
	C45.776798,252.644897 81.246574,231.335205 115.863235,208.614944 
	C151.140640,185.461014 185.889893,161.497681 221.308563,138.565506 
	C242.488327,124.852440 264.133972,111.755600 286.243195,99.606445 
	C316.728210,82.854713 348.494385,68.890556 382.242279,59.743729 
	C404.982544,53.580334 428.086853,48.595570 451.465088,47.428875 
	C475.735901,46.217644 500.232605,45.217819 524.512939,49.862255 
	C544.866333,53.755554 564.571472,59.041035 582.569946,69.664413 
	C585.533752,71.413750 588.847839,72.569763 592.000000,74.000000 
z"/>
<path fill="#D5D5D5" opacity="1.000000" stroke="none" 
	d="
M592.000000,73.531342 
	C588.847839,72.569763 585.533752,71.413750 582.569946,69.664413 
	C564.571472,59.041035 544.866333,53.755554 524.512939,49.862255 
	C500.232605,45.217819 475.735901,46.217644 451.465088,47.428875 
	C428.086853,48.595570 404.982544,53.580334 382.242279,59.743729 
	C348.494385,68.890556 316.728210,82.854713 286.243195,99.606445 
	C264.133972,111.755600 242.488327,124.852440 221.308563,138.565506 
	C185.889893,161.497681 151.140640,185.461014 115.863235,208.614944 
	C81.246574,231.335205 45.776798,252.644897 8.492556,270.785278 
	C6.258375,271.872314 3.896391,272.696655 1.296935,273.321594 
	C1.000000,192.312439 1.000000,111.624878 1.426723,30.233463 
	C4.166901,29.678616 6.480338,29.957766 8.793814,29.958097 
	C203.195877,29.985960 397.597931,29.992207 592.000000,30.000000 
	C592.000000,44.354229 592.000000,58.708454 592.000000,73.531342 
z"/>
<path fill="#D5D5D5" opacity="1.000000" stroke="none" 
	d="
M1.000000,24.000000 
	C1.000000,16.338604 1.000000,8.677209 1.000000,1.038754 
	C198.000000,1.038754 395.000000,1.038754 592.000000,1.038754 
	C592.000000,8.405847 592.000000,15.734187 591.567688,23.751930 
	C588.822998,24.294907 586.510681,24.020506 584.198303,24.020262 
	C389.798859,23.999847 195.399429,24.000683 1.000000,24.000000 
z"/>
<path fill="#FFFFFF" opacity="1.000000" stroke="none" 
	d="
M1.000000,24.428799 
	C195.399429,24.000683 389.798859,23.999847 584.198303,24.020262 
	C586.510681,24.020506 588.822998,24.294907 591.567688,24.220669 
	C592.000000,25.714134 592.000000,27.428270 592.000000,29.571201 
	C397.597931,29.992207 203.195877,29.985960 8.793814,29.958097 
	C6.480338,29.957766 4.166901,29.678616 1.426723,29.764807 
	C1.000000,28.285866 1.000000,26.571730 1.000000,24.428799 
z"/>
<path fill="#F5F5F5" opacity="1.000000" stroke="none" 
	d="
M1.000018,1283.500000 
	C1.694795,1283.438965 2.389595,1283.877930 3.042219,1284.658447 
	C2.333375,1284.666626 1.666708,1284.333252 1.000018,1283.500000 
z"/>
</svg>